<svg width="24" height="16" viewBox="0 0 9 6" fill="none" xmlns="http://www.w3.org/2000/svg">
<path d="M5.09961 0.150391C5.51382 0.150391 5.84961 0.486177 5.84961 0.900391V5.09961C5.84961 5.51382 5.51382 5.84961 5.09961 5.84961C4.68558 5.8494 4.34961 5.51369 4.34961 5.09961V0.900391C4.34961 0.486307 4.68558 0.150602 5.09961 0.150391ZM3 0.570312C3.41421 0.570312 3.75 0.906099 3.75 1.32031V4.62012C3.74994 5.03428 3.41417 5.37012 3 5.37012C2.58583 5.37012 2.25006 5.03428 2.25 4.62012V1.32031C2.25 0.906099 2.58579 0.570313 3 0.570312ZM7.2002 1.70996C7.61431 1.71007 7.95017 2.04583 7.9502 2.45996V3.48047C7.94994 3.8944 7.61416 4.23036 7.2002 4.23047C6.78614 4.23047 6.45045 3.89447 6.4502 3.48047V2.45996C6.45022 2.04577 6.78599 1.70996 7.2002 1.70996ZM0.900391 2.07031C1.31442 2.07052 1.65039 2.40623 1.65039 2.82031V3.12012C1.65033 3.53415 1.31439 3.86991 0.900391 3.87012C0.486216 3.87012 0.150454 3.53428 0.150391 3.12012V2.82031C0.150391 2.4061 0.486177 2.07031 0.900391 2.07031Z" fill="white" stroke="black" stroke-width="0.3"/>
</svg>
