<svg width="32" height="32" viewBox="0 0 32 32" fill="none" xmlns="http://www.w3.org/2000/svg">
<rect width="32" height="32" rx="8" fill="white"/>
<path d="M18.7196 8.5C19.7689 8.5 20.62 9.35105 20.62 10.4004V21.5996C20.62 22.649 19.7689 23.5 18.7196 23.5C17.6704 23.4998 16.8202 22.6488 16.8202 21.5996V10.4004C16.8202 9.35118 17.6704 8.50021 18.7196 8.5ZM13.12 9.62012C14.1692 9.62012 15.0201 10.4704 15.0204 11.5195V20.3203C15.0202 21.3695 14.1692 22.2197 13.12 22.2197C12.0708 22.2197 11.2198 21.3695 11.2196 20.3203V11.5195C11.2199 10.4704 12.0708 9.62012 13.12 9.62012ZM24.3202 12.6602C25.3693 12.6603 26.2194 13.5105 26.2196 14.5596V17.2803C26.2195 18.3294 25.3694 19.1796 24.3202 19.1797C23.2709 19.1797 22.4199 18.3295 22.4198 17.2803V14.5596C22.42 13.5104 23.271 12.6602 24.3202 12.6602ZM7.52039 13.6201C8.56939 13.6203 9.41955 14.4705 9.4198 15.5195V16.3203C9.41963 17.3694 8.56944 18.2195 7.52039 18.2197C6.47115 18.2197 5.62016 17.3695 5.62 16.3203V15.5195C5.62025 14.4704 6.4712 13.6201 7.52039 13.6201Z" fill="white" stroke="black"/>
</svg>
